<?xml version="1.0" encoding="utf-8" ?>
<svg baseProfile="tiny" height="64" version="1.2" viewBox="0 0 64 64" width="64" xmlns="http://www.w3.org/2000/svg" xmlns:ev="http://www.w3.org/2001/xml-events" xmlns:xlink="http://www.w3.org/1999/xlink"><defs /><polygon fill="black" points="36.4606,47.746 36.0727,48.0847 35.297,48.0847 34.9091,48.4233 34.5212,48.4233 34.1333,48.7619 33.3576,48.7619 32.9697,49.1005 31.8061,49.1005 31.4182,49.4392 30.6424,49.4392 30.2545,49.7778 29.8667,49.7778 29.4788,50.1164 28.703,50.1164 28.3152,50.455 27.5394,50.455 27.1515,50.7937 26.3758,50.7937 26.3758,53.164 27.1515,53.8413 27.5394,53.8413 28.3152,54.5185 28.703,54.5185 29.4788,55.1958 29.8667,55.1958 30.6424,55.873 31.0303,55.873 31.4182,56.2116 32.1939,56.2116 32.5818,55.873 32.9697,55.873 33.3576,55.5344 33.7455,55.5344 34.5212,54.8571 34.9091,54.8571 35.6848,54.1799 36.0727,54.1799 36.8485,53.5026 37.2364,53.5026 37.2364,47.746" /><polygon fill="black" points="36.0727,40.2963 35.6848,40.6349 34.9091,40.6349 34.5212,40.9735 33.7455,40.9735 33.3576,41.3122 32.5818,41.3122 32.1939,41.6508 31.4182,41.6508 31.0303,41.9894 30.2545,41.9894 29.8667,42.328 29.0909,42.328 28.703,42.6667 27.9273,42.6667 27.5394,43.0053 26.7636,43.0053 26.3758,43.3439 26.3758,47.4074 27.1515,47.4074 27.5394,47.0688 27.9273,47.0688 28.3152,46.7302 29.0909,46.7302 29.4788,46.3915 30.2545,46.3915 30.6424,46.0529 31.4182,46.0529 31.8061,45.7143 32.5818,45.7143 32.9697,45.3757 33.7455,45.3757 34.1333,45.037 34.9091,45.037 35.297,44.6984 36.0727,44.6984 36.4606,44.3598 37.2364,44.3598 37.2364,40.2963" /><polygon fill="black" points="36.8485,33.1852 36.4606,33.5238 35.6848,33.5238 35.297,33.8624 34.1333,33.8624 33.7455,34.2011 33.3576,34.2011 32.9697,34.5397 31.8061,34.5397 31.4182,34.8783 30.6424,34.8783 30.2545,35.2169 29.4788,35.2169 29.0909,35.5556 28.3152,35.5556 27.9273,35.8942 27.1515,35.8942 26.7636,36.2328 26.3758,36.2328 26.3758,39.619 26.7636,39.9577 27.1515,39.619 27.9273,39.619 28.3152,39.2804 28.703,39.2804 29.0909,38.9418 29.8667,38.9418 30.2545,38.6032 31.4182,38.6032 31.8061,38.2646 32.5818,38.2646 32.9697,37.9259 33.7455,37.9259 34.1333,37.5873 34.9091,37.5873 35.297,37.2487 36.0727,37.2487 36.4606,36.9101 37.2364,36.9101 37.2364,33.1852" /><polygon fill="black" points="8.1455,0.0 8.1455,11.8519 8.5333,12.1905 8.5333,13.8836 8.9212,14.2222 8.9212,14.5608 9.3091,14.8995 9.3091,15.2381 10.0848,15.9153 10.0848,16.254 10.8606,16.9312 11.2485,16.9312 12.0242,17.6085 12.4121,17.6085 12.8,17.9471 13.5758,17.9471 13.9636,18.2857 20.5576,18.2857 21.3333,18.963 21.3333,19.9788 21.7212,20.3175 21.7212,21.3333 22.1091,21.672 22.1091,22.6878 22.497,23.0265 22.497,23.7037 22.8848,24.0423 22.8848,24.7196 24.8242,26.4127 25.9879,26.4127 26.3758,26.7513 26.3758,32.8466 27.1515,32.8466 27.5394,32.5079 28.3152,32.5079 28.703,32.1693 29.4788,32.1693 29.8667,31.8307 30.6424,31.8307 31.0303,31.4921 31.8061,31.4921 32.1939,31.1534 32.9697,31.1534 33.3576,30.8148 34.1333,30.8148 34.5212,30.4762 35.297,30.4762 35.6848,30.1376 36.4606,30.1376 36.8485,29.7989 37.2364,29.7989 37.2364,26.7513 37.6242,26.4127 38.4,26.4127 38.7879,26.0741 39.1758,26.0741 40.3394,25.0582 40.3394,24.7196 40.7273,24.381 40.7273,23.7037 41.1152,23.3651 41.1152,22.3492 41.503,22.0106 41.503,21.3333 41.8909,20.9947 41.8909,20.3175 42.2788,19.9788 42.2788,18.963 43.0545,18.2857 50.0364,18.2857 50.4242,17.9471 50.8121,17.9471 51.2,17.6085 51.5879,17.6085 51.9758,17.2698 52.3636,17.2698 54.303,15.5767 54.303,15.2381 54.6909,14.8995 54.6909,14.5608 55.0788,14.2222 55.0788,13.545 55.4667,13.2063 55.4667,0.0 51.9758,0.0 51.9758,13.2063 51.2,13.8836 51.2,14.2222 50.4242,14.8995 50.0364,14.8995 49.6485,15.2381 48.8727,15.2381 48.4848,15.5767 15.1273,15.5767 14.7394,15.2381 13.9636,15.2381 12.0242,13.545 12.0242,13.2063 11.6364,12.8677 11.6364,0.0" /></svg>